<svg width="83" height="24" viewBox="0 0 83 24" fill="none" xmlns="http://www.w3.org/2000/svg">
<g clip-path="url(#clip0_2595_19103)">
<path d="M13.638 2.36974C13.349 1.90184 12.972 1.49434 12.528 1.16974C12.0796 0.863137 11.5883 0.624555 11.07 0.461744C10.5069 0.27752 9.92554 0.154805 9.33602 0.0957437C8.6461 0.0284934 7.9532 -0.0035482 7.26002 -0.000256313H1.26002C1.12094 -0.0133935 0.980635 0.00151638 0.847421 0.0435902C0.714206 0.0856641 0.590791 0.154046 0.484486 0.244685C0.378181 0.335324 0.291148 0.446377 0.228543 0.571265C0.165938 0.696152 0.129035 0.832334 0.12002 0.971744C0.12002 0.971744 0.12002 1.00774 0.12002 1.02574V10.7697C0.951873 12.5547 2.33328 14.0265 4.06202 14.9697V13.0137C4.04885 12.8628 4.06558 12.7108 4.11124 12.5663C4.15691 12.4219 4.23062 12.2879 4.32815 12.1719C4.42568 12.056 4.54512 11.9605 4.67963 11.8908C4.81414 11.8211 4.96107 11.7786 5.11202 11.7657H6.91202C9.36802 11.7657 11.242 11.2517 12.534 10.2237C13.826 9.19574 14.482 7.67174 14.502 5.65174C14.5041 5.06961 14.4356 4.48938 14.298 3.92374C14.1609 3.37434 13.9381 2.84993 13.638 2.36974ZM10.122 7.37974C9.91276 7.7398 9.60173 8.02996 9.22802 8.21374C8.82309 8.40715 8.38558 8.52314 7.93802 8.55574C7.44641 8.61696 6.95142 8.64702 6.45602 8.64574H4.72802C4.31402 8.64574 4.05602 8.30974 4.05602 7.81774V3.79774C4.05005 3.70954 4.06365 3.62111 4.09584 3.53877C4.12803 3.45644 4.17801 3.38223 4.24222 3.32146C4.30643 3.2607 4.38327 3.21487 4.46725 3.18726C4.55123 3.15965 4.64028 3.15093 4.72802 3.16174H6.45602C7.01602 3.16174 7.54402 3.17774 8.04002 3.20974C8.48207 3.23096 8.91593 3.33688 9.31802 3.52174C9.68797 3.68645 9.9966 3.96358 10.2 4.31374C10.4297 4.78325 10.5351 5.30386 10.506 5.82574C10.5177 6.36668 10.3851 6.90097 10.122 7.37374V7.37974ZM4.06802 15.5577C2.58839 15.0239 1.24164 14.1766 0.12002 13.0737V17.7837C0.107455 17.8735 0.113162 17.9648 0.136796 18.0523C0.160431 18.1397 0.201506 18.2215 0.257553 18.2927C0.313599 18.3638 0.383459 18.423 0.462933 18.4664C0.542408 18.5099 0.629856 18.5369 0.72002 18.5457H3.43202C4.15202 18.5457 4.06802 17.7777 4.06802 17.7777V15.5577ZM41.34 5.12974H39C38.7767 5.11514 38.5554 5.18001 38.3753 5.31288C38.1952 5.44575 38.068 5.63805 38.016 5.85574L35.298 13.3437C35.298 13.3437 32.898 6.52174 32.718 5.99374C32.6675 5.75012 32.5352 5.53107 32.3432 5.37285C32.1511 5.21464 31.9108 5.12675 31.662 5.12374H29.508C28.74 5.12374 28.74 5.72374 28.842 5.95774C28.944 6.19174 31.89 14.2677 33.042 17.3577C33.2234 17.7381 33.3507 18.1421 33.42 18.5577C33.3453 18.968 33.1904 19.3595 32.964 19.7097C32.8765 19.8582 32.7761 19.9988 32.664 20.1297C34.884 19.4697 37.464 17.0637 38.76 14.4657C40.068 10.8657 41.79 6.06574 41.868 5.81974C41.952 5.44174 41.952 5.12974 41.34 5.12974ZM30.912 20.8617C30.7113 20.8564 30.511 20.8403 30.312 20.8137C30.066 20.7777 29.598 20.8137 29.598 21.2337V23.0337C29.598 23.7237 29.934 23.7717 30.108 23.8197C30.6637 23.9416 31.2311 24.002 31.8 23.9997C32.4723 24.0174 33.1396 23.8799 33.75 23.5977C34.3085 23.3156 34.8044 22.9238 35.208 22.4457C35.6657 21.9224 36.053 21.3415 36.36 20.7177C36.692 20.0537 37.008 19.3197 37.308 18.5157L37.656 17.5617C36.96 18.2517 33.888 21.1497 30.912 20.8617ZM27.372 7.28374C27.2445 6.98055 27.0704 6.69916 26.856 6.44974C26.6392 6.2187 26.3931 6.017 26.124 5.84974C25.8333 5.65179 25.5238 5.48298 25.2 5.34574C24.8703 5.21798 24.5313 5.11568 24.186 5.03974C23.7908 4.95232 23.3898 4.89416 22.986 4.86574C22.554 4.82174 22.07 4.79974 21.534 4.79974C17.958 4.79974 15.922 5.92774 15.426 8.18374C15.4049 8.26783 15.4022 8.3555 15.4182 8.44073C15.4341 8.52595 15.4684 8.6067 15.5186 8.67741C15.5688 8.74813 15.6337 8.80712 15.7088 8.85034C15.784 8.89355 15.8677 8.91996 15.954 8.92774H18.156C18.756 8.92774 18.756 8.74174 18.984 8.22574C19.084 7.94482 19.2632 7.69889 19.5 7.51774C20.0627 7.15457 20.7281 6.98401 21.396 7.03174C22.019 6.96808 22.6447 7.12291 23.166 7.46974C23.5637 7.84096 23.7987 8.35416 23.82 8.89774C23.82 9.64174 23.592 10.1337 22.668 10.1337C20.478 10.0557 18.126 10.3017 16.8 11.0637C16.1473 11.4622 15.6115 12.0261 15.2469 12.6984C14.8823 13.3706 14.7019 14.1273 14.724 14.8917C14.7089 15.4872 14.83 16.0782 15.078 16.6197C15.3116 17.0904 15.6504 17.5009 16.068 17.8197C16.5064 18.1773 17.0126 18.4426 17.556 18.5997C18.17 18.766 18.804 18.8467 19.44 18.8397C20.2957 18.853 21.1481 18.7316 21.966 18.4797C22.6889 18.1836 23.3722 17.7986 24 17.3337V17.7537C24 18.1677 24.126 18.5397 24.6 18.5397H27.15C27.666 18.5397 27.786 18.1737 27.786 17.7177V9.86374C27.7891 9.37387 27.755 8.88446 27.684 8.39974C27.6274 8.0161 27.5226 7.64113 27.372 7.28374ZM23.886 14.9997C23.886 14.9997 23.226 16.3797 20.886 16.3797C20.3249 16.4056 19.7701 16.2522 19.302 15.9417C19.096 15.7817 18.9332 15.5728 18.8284 15.3339C18.7236 15.095 18.6802 14.8337 18.702 14.5737C18.6762 14.2246 18.7571 13.8759 18.9339 13.5738C19.1107 13.2716 19.375 13.0303 19.692 12.8817C20.6386 12.5181 21.6486 12.3487 22.662 12.3837C22.8171 12.3603 22.9754 12.3708 23.126 12.4144C23.2767 12.458 23.4161 12.5338 23.5347 12.6364C23.6533 12.739 23.7482 12.8661 23.813 13.0089C23.8778 13.1518 23.9109 13.3069 23.91 13.4637L23.886 14.9997Z" fill="#333333"/>
<path d="M82.2 9.94758C82.4956 10.423 82.6523 10.9717 82.6523 11.5316C82.6523 12.0914 82.4956 12.6401 82.2 13.1156C81.6 14.0276 78.33 17.5196 77.25 18.6416C76.314 19.6136 75.048 20.5976 73.794 20.5976H47.82C44.304 20.5976 44.094 19.3976 44.094 16.7216V5.80758C44.094 3.06558 44.904 2.26758 47.31 2.26758H73.854C75.096 2.26758 76.206 2.90358 77.454 4.18758C78.546 5.28558 81.768 9.29958 82.2 9.94758Z" fill="#33CCCC"/>
<path d="M49.9919 6.48563V6.41963C49.9919 6.06563 49.9919 5.72363 49.3919 5.72363H47.2139C46.7039 5.72363 46.6799 5.99963 46.6799 6.43163V9.31163C47.5391 8.11557 48.6756 7.14583 49.9919 6.48563Z" fill="white"/>
<path d="M64.578 16.9015V16.7455V9.79755C64.578 6.88955 63.294 5.43555 60.726 5.43555C60.0113 5.44401 59.3131 5.65181 58.71 6.03555C58.0455 6.45004 57.4519 6.96865 56.952 7.57155C56.7258 6.91992 56.286 6.36385 55.704 5.99355C55.0422 5.62877 54.2931 5.45238 53.538 5.48355C52.4275 5.48773 51.3496 5.859 50.472 6.53955C50.28 6.73155 46.674 9.53955 46.674 12.4675V16.9135C46.674 17.0515 46.602 17.5915 47.208 17.5915H49.47C50.172 17.5915 50.106 17.1295 50.106 16.9375V9.73755C50.484 9.22755 51.258 8.00955 52.536 8.00955C52.7405 7.99095 52.9461 8.0273 53.1318 8.11486C53.3175 8.20241 53.4764 8.33799 53.592 8.50755C53.8486 9.01981 53.9606 9.59235 53.916 10.1635V15.7735V16.9255C53.916 17.0635 53.844 17.6035 54.45 17.6035H56.688C57.39 17.6035 57.324 17.1415 57.324 16.9495V16.7935V9.71355C57.732 9.20355 58.524 7.98555 59.754 7.98555C59.9608 7.96862 60.1685 8.0056 60.3567 8.09289C60.545 8.18017 60.7073 8.31477 60.828 8.48355C61.0888 8.99452 61.203 9.56767 61.158 10.1395V15.7495V16.9015C61.158 17.0395 61.086 17.5795 61.692 17.5795H63.954C64.662 17.5435 64.578 17.0875 64.578 16.9015Z" fill="white"/>
<path d="M77.052 14.0755C76.6676 15.1091 75.9633 15.9929 75.0417 16.5984C74.12 17.2038 73.0292 17.4992 71.928 17.4415C68.472 17.4415 66.168 15.0895 66.168 11.5615C66.168 8.03352 68.568 5.56152 71.808 5.56152C75.048 5.56152 77.208 7.80552 77.346 11.4235C77.346 11.8855 77.232 12.2935 76.65 12.2935H69.318C69.366 14.2315 70.296 15.2935 71.952 15.2935C72.3916 15.3045 72.8253 15.1895 73.2016 14.962C73.578 14.7344 73.8814 14.4039 74.076 14.0095C74.1526 13.8979 74.2558 13.8071 74.3762 13.7453C74.4967 13.6835 74.6306 13.6527 74.766 13.6555H76.656C76.7127 13.6528 76.7693 13.663 76.8215 13.6851C76.8738 13.7073 76.9204 13.741 76.9578 13.7836C76.9953 13.8263 77.0227 13.8768 77.0379 13.9315C77.0532 13.9862 77.0559 14.0436 77.046 14.0995L77.052 14.0755ZM71.82 7.79952C70.446 7.79952 69.516 8.75352 69.312 10.3255H74.232C74.106 8.95152 73.362 7.79952 71.82 7.79952Z" fill="white"/>
</g>
<defs>
<clipPath id="clip0_2595_19103">
<rect width="82.8" height="24" fill="white"/>
</clipPath>
</defs>
</svg>
